<svg width="150" height="34" viewBox="0 0 150 34" fill="none" xmlns="http://www.w3.org/2000/svg">
<path d="M0 23.6563C2.59091 29.7367 8.62338 34 15.6558 34C13.0649 27.9164 7.02922 23.6563 0 23.6563Z" fill="#00BF63"/>
<path d="M28.4124 12.748C28.4124 19.7887 22.7014 25.4959 15.6559 25.4959C8.61045 25.4959 2.89941 19.7887 2.89941 12.748C2.89941 5.70722 8.61045 0 15.6559 0C22.7014 0 28.4124 5.70722 28.4124 12.748Z" fill="#FFBA00"/>
<path d="M15.6562 33.9967C20.8218 33.9967 25.2666 30.9305 27.2731 26.5179C22.1108 26.5212 17.6627 29.5873 15.6562 33.9967Z" fill="#00BF63"/>
<path d="M22.0351 12.7479C22.0351 16.2683 19.178 19.1235 15.6553 19.1235C12.1325 19.1235 9.27539 16.2683 9.27539 12.7479C9.27539 9.22755 12.1325 6.37231 15.6553 6.37231C19.178 6.37556 22.0351 9.22755 22.0351 12.7479Z" fill="#003D96"/>
<path d="M74.0878 19.2859C74.0878 17.6831 72.5001 16.966 70.7209 16.966C68.0033 16.966 65.6527 18.1113 64.9352 21.0607C70.4709 22.6603 74.0878 21.4662 74.0878 19.2859ZM64.8183 24.4772C65.393 28.0073 68.1917 29.1592 71.0326 29.1592C72.9124 29.1592 74.8865 28.4259 76.1008 27.326L79.393 30.6354C77.4254 32.8126 74.6917 33.9968 70.9514 33.9968C65.7144 33.9968 59.3995 30.908 59.3995 23.082C59.3995 15.2561 65.4806 12.1673 70.6462 12.1673C77.1787 12.1673 79.8832 15.2334 79.8832 18.6727C79.8832 24.2988 72.7339 26.8944 64.8183 24.4772ZM39.1202 12.748L38.9611 20.5123C38.9222 23.6563 38.8085 25.2072 38.354 26.9885C37.9384 28.6919 37.143 29.1754 35.8897 29.1754C35.4741 29.1754 35.0943 29.1364 34.7891 29.0229V33.4161C35.2046 33.6432 35.8897 33.7567 36.7988 33.7567C40.5521 33.6432 42.3702 31.8749 43.2793 28.6919C43.9222 26.4207 44.0358 24.6784 44.1495 22.0632L44.2696 17.8712H50.8962V33.4161H56.2306V12.748H39.1202ZM141.812 23.0853C141.812 21.3916 141.273 19.9867 140.156 18.9095C139.081 17.7934 137.714 17.2548 136.062 17.2548C134.406 17.2548 133.042 17.7934 131.968 18.9095C130.893 19.9835 130.354 21.3916 130.354 23.0853C130.354 24.779 130.893 26.1871 131.968 27.3033C133.042 28.3772 134.409 28.9158 136.062 28.9158C137.718 28.9158 139.081 28.3772 140.156 27.3033C141.273 26.1839 141.812 24.779 141.812 23.0853ZM150 28.9223V33.3155C149.091 33.7697 147.955 33.9968 146.627 33.9968C143.854 33.9968 142.458 32.7898 141.899 30.8496L141.812 30.9794C140.198 33.004 137.964 33.9968 135.068 33.9968C132.296 33.9968 129.938 32.965 127.951 30.8561C126.007 28.7471 125.013 26.1449 125.013 23.0853C125.013 20.0257 126.007 17.4624 127.951 15.3534C129.938 13.2445 132.296 12.1705 135.068 12.1705C137.838 12.1705 140 13.079 141.594 14.9317V12.7513H146.932V27.3714C146.932 28.6206 147.5 29.2662 148.636 29.2662C149.166 29.263 149.62 29.1494 150 28.9223ZM105.581 17.8745H112.224V33.4193H117.562V17.8745H124.123V12.748H105.581V17.8745ZM97.7339 12.748H103.072V33.4161H97.7339V25.3662H88.4157V33.4161H83.078V12.748H88.4157V20.3663H97.7339V12.748Z" fill="#003D96"/>
</svg>
